<?xml version="1.0" encoding="UTF-8"?>
<svg width="59px" height="59px" viewBox="0 0 59 59" version="1.1" xmlns="http://www.w3.org/2000/svg" xmlns:xlink="http://www.w3.org/1999/xlink">
    <title>fnb</title>
    <g id="fnb" stroke="none" stroke-width="1" fill="none" fill-rule="evenodd">
        <g id="icons/reserved/payments">
            <path d="M59,29.5 C59,45.7924403 45.7924403,59 29.5,59 C13.2075597,59 0,45.7924403 0,29.5 C0,13.2075597 13.2075597,0 29.5,0 C45.7924403,0 59,13.2075597 59,29.5" id="Fill-1" fill="#00A9AC"></path>
            <path d="M50.8217806,29.5 C50.8217806,41.2756625 41.2756625,50.8217806 29.5,50.8217806 C17.7243375,50.8217806 8.17821944,41.2756625 8.17821944,29.5 C8.17821944,17.7243375 17.7243375,8.17821944 29.5,8.17821944 C41.2756625,8.17821944 50.8217806,17.7243375 50.8217806,29.5" id="Fill-3" fill="#FA9D1E"></path>
            <path d="M29.5,49.9456142 C18.2081375,49.9456142 9.0542875,40.7917642 9.0542875,29.4999836 C9.0542875,18.2082031 18.2081375,9.05435306 29.5,9.05435306 C40.7918625,9.05435306 49.9457125,18.2082031 49.9457125,29.4999836 C49.9457125,40.7917642 40.7918625,49.9456142 29.5,49.9456142 M29.5,7.01000306 C17.0791069,7.01000306 7.0099375,17.0790906 7.0099375,29.4999836 C7.0099375,41.9208767 17.0791069,51.9900461 29.5,51.9900461 C41.9208931,51.9900461 51.9900625,41.9208767 51.9900625,29.4999836 C51.9900625,17.0790906 41.9208931,7.01000306 29.5,7.01000306" id="Fill-5" fill="#FFFFFF"></path>
            <path d="M32.4002679,30.4007088 C31.1225082,31.9110268 30.1142637,33.6913518 29.5000082,35.633599 C28.8857526,33.6913518 27.8775082,31.9110268 26.5997485,30.4007088 L26.5998304,30.4007088 C26.5929471,30.3925963 26.5861457,30.3843199 26.5791804,30.3762074 L29.5000082,30.3762074 L32.420836,30.3762074 C32.4138707,30.3843199 32.4070693,30.3925963 32.400186,30.4007088 L32.4002679,30.4007088 Z M29.5000082,27.2606796 C27.9701054,27.2609254 26.4315985,27.2994393 24.8935012,27.3749101 C24.2222943,26.4840101 23.4133387,25.7061935 22.497036,25.0744837 C24.8092624,24.910349 27.1445151,24.8266837 29.5000082,24.8266837 C34.1625651,24.8266837 38.7461276,25.1539699 43.2276693,25.7855976 L43.4800582,23.3845435 C38.9665582,22.4792212 34.2907262,22.003206 29.5000082,22.003206 C24.7092901,22.003206 20.0334582,22.4792212 15.5199582,23.3845435 L15.7723471,25.7855976 C16.8910526,25.6279365 18.0162318,25.4893685 19.147311,25.3700574 C19.3484026,25.346949 19.5108165,25.4012782 19.6002999,25.4405296 C20.6568096,25.9035976 21.5695887,26.6311824 22.2630026,27.5405199 C19.3897026,27.7610324 16.5351679,28.1106074 13.757579,28.5854754 L14.0198012,31.0731449 C16.2472971,30.879756 18.9718679,30.6748129 19.547036,30.6634226 C22.8119485,30.5986865 25.5225068,32.8396212 26.3037651,36.0180824 C26.8434512,38.2883532 26.5578749,41.2222101 26.4817485,42.6435365 L29.5000082,42.6435365 L32.5182679,42.6435365 C32.4421415,41.2222101 32.1565651,38.2883532 32.6961693,36.0180824 C33.4775096,32.8396212 36.1880679,30.5986865 39.4529804,30.6634226 C40.0281485,30.6748129 42.7527193,30.879756 44.9802151,31.0731449 L45.2424374,28.5854754 C40.1346762,27.7122754 34.7669054,27.2616629 29.5000082,27.2606796 L29.5000082,27.2606796 Z M29.5000082,17.5247536 C26.1146374,17.5247536 22.812686,17.8813758 19.6293082,18.5587286 L19.8613749,20.7672953 C23.0063207,20.2989828 26.2247707,20.0560175 29.5000082,20.0560175 C32.7752457,20.0560175 35.9936957,20.2989828 39.1386415,20.7672953 L39.3707082,18.5587286 C36.1873304,17.8813758 32.885379,17.5247536 29.5000082,17.5247536" id="Fill-9" fill="#000000"></path>
        </g>
    </g>
</svg>